<svg width="150" height="150" viewBox="0 0 150 150" fill="none" xmlns="http://www.w3.org/2000/svg">
<path d="M133.192 0H16.8082C7.59961 0 0 7.6002 0 16.8082V133.192C0 142.4 7.6002 150 16.8082 150H133.192C142.4 150 150 142.4 150 133.192V16.8082C150 7.59961 142.4 0 133.192 0ZM117.991 95.1896C117.991 96.5959 116.786 97.1988 115.379 97.8012C109.788 100.212 103.795 102.388 97.3658 102.388C88.3594 102.388 84.174 96.7969 73.3594 96.7969C65.5582 96.7969 57.3551 99.6094 50.7592 102.589C50.3572 102.79 49.9553 102.79 49.5533 102.991V118.192C49.5533 118.795 49.5533 119.397 49.3529 119.799V120.201C48.549 123.013 45.9375 124.989 42.9574 124.989C39.174 124.989 36.1605 121.975 36.1605 118.192V45C33.549 42.9908 31.7748 39.8104 31.7748 36.1939C31.7748 30 36.7635 24.9779 42.9908 24.9779C49.1854 24.9779 54.2074 29.9666 54.2074 36.1939C54.2074 39.8104 52.6002 42.9908 49.8217 45V51.1939C50.424 50.9936 51.027 50.7926 51.6293 50.3906C57.8238 47.7791 65.223 45.6029 72.2209 45.6029C79.8217 45.6029 85.8147 47.6115 92.6115 50.1896C94.0178 50.7926 95.424 50.9936 96.9979 50.9936C104.598 50.9936 113.002 45.6029 115.011 45.6029C116.619 45.6029 118.025 46.8082 118.025 48.2145V95.1896H117.991Z" fill="#339AF0"/>
</svg>
